<?xml version="1.0" standalone="no"?><!DOCTYPE svg PUBLIC "-//W3C//DTD SVG 1.1//EN" "http://www.w3.org/Graphics/SVG/1.1/DTD/svg11.dtd"><svg t="1684330903821" class="icon" viewBox="0 0 1024 1024" version="1.1" xmlns="http://www.w3.org/2000/svg" p-id="6540" xmlns:xlink="http://www.w3.org/1999/xlink" width="200" height="200"><path d="M887 511.9c0-31.1-22.7-56.9-52.5-61.7-3-15.7-7.1-31.2-12.3-46.2 23.3-19 30.1-52.7 14.5-79.6-15.6-27-48.2-37.9-76.4-27.1-5.2-6-10.6-11.8-16.2-17.4-5.7-5.7-11.5-11.1-17.6-16.3 10.8-28.2-0.2-60.8-27.1-76.4-26.9-15.5-60.6-8.8-79.6 14.6-15-5.2-30.5-9.3-46.2-12.3-4.8-29.7-30.6-52.5-61.7-52.5s-56.9 22.7-61.7 52.5c-15.8 3-31.2 7.1-46.3 12.3-19-23.3-52.7-30-79.5-14.5-26.9 15.5-37.9 48.1-27.2 76.3a337.337 337.337 0 0 0-33.8 33.8c-28.1-10.7-60.7 0.3-76.2 27.2s-8.8 60.4 14.4 79.5c-5.2 15.1-9.4 30.6-12.4 46.4-29.6 4.9-52.3 30.6-52.3 61.6s22.6 56.8 52.3 61.6c3 15.8 7.1 31.3 12.4 46.4-23.1 19.1-29.8 52.6-14.3 79.4 15.5 26.9 48 37.9 76.1 27.2 5.2 6 10.6 11.8 16.3 17.5 5.7 5.7 11.6 11.2 17.6 16.4-10.6 28.1 0.4 60.6 27.2 76.1 26.8 15.5 60.4 8.8 79.4-14.4 15.1 5.2 30.6 9.4 46.4 12.3 4.9 29.6 30.6 52.2 61.6 52.2s56.8-22.6 61.6-52.3c15.8-3 31.3-7.1 46.4-12.4 19.1 23.2 52.6 29.9 79.5 14.4 26.9-15.5 37.9-48.1 27.2-76.2 5.9-5.2 11.7-10.5 17.3-16.2 5.7-5.7 11.2-11.6 16.5-17.7 28.1 10.7 60.7-0.3 76.2-27.2s8.8-60.5-14.5-79.6c5.2-15 9.3-30.5 12.3-46.3 29.9-4.5 52.6-30.3 52.6-61.4z m-84.5 58.5c-2.5 12.3-5.7 24.4-9.7 36.1-24.9-4.1-50.9 7.2-64.3 30.4-13.4 23.2-10.2 51.3 5.8 70.8-8.3 9.4-17.1 18.2-26.4 26.5-19.5-16-47.7-19.1-70.8-5.7-23.2 13.4-34.6 39.5-30.4 64.5-11.7 4-23.8 7.2-36.1 9.7-8.9-23.7-31.7-40.6-58.5-40.6s-49.7 16.9-58.6 40.7c-12.3-2.5-24.4-5.7-36.1-9.6 4.2-25-7.2-51.1-30.4-64.5-23.2-13.4-51.4-10.2-70.9 5.9-9.4-8.2-18.2-17.1-26.4-26.4 16-19.5 19.2-47.7 5.8-70.9-13.4-23.2-39.5-34.6-64.5-30.4-4-11.7-7.2-23.8-9.7-36.1 23.7-8.9 40.6-31.7 40.6-58.6s-16.9-49.7-40.6-58.6c2.5-12.3 5.7-24.4 9.7-36.1 25 4.2 51-7.2 64.4-30.4 13.4-23.2 10.2-51.3-5.8-70.8 8.3-9.4 17.1-18.2 26.5-26.5 19.5 16 47.7 19.1 70.8 5.7 23.2-13.4 34.5-39.4 30.4-64.3 11.7-4 23.8-7.2 36.1-9.7 8.9 23.6 31.7 40.5 58.5 40.5s49.6-16.8 58.5-40.5c12.3 2.5 24.4 5.7 36.1 9.7-4.1 24.9 7.3 50.9 30.4 64.2 23.1 13.3 51.2 10.2 70.7-5.7 9.4 8.3 18.2 17.1 26.5 26.5-15.9 19.5-19 47.6-5.7 70.7 13.4 23.2 39.4 34.5 64.3 30.4 4 11.7 7.2 23.8 9.7 36.1-23.6 8.9-40.4 31.7-40.4 58.5s16.9 49.6 40.5 58.5z" fill="#BE9567" p-id="6541"></path></svg>